#!OML:ASF H:\Male1\Project 1\Capture day 1\Session 1\Male1.ASF
:FULLY-SPECIFIED
:DEGREES
375
root 2.61521 14.5164 0.448522 -7.64917 106.499 -368.442
lowerback 23.36 0.94461 -7.85677
upperback 8.68722 0.29927 -2.52466
thorax -3.39995 0.45109 1.64443
lowerneck -8.52443 -0.538205 4.00073
upperneck -12.0411 -0.0471282 3.98064
head -2.38746 0.00280473 0.583326
rclavicle -1.98785e-014 -1.74931e-014
rhumerus -45.6654 8.18005 -84.6468
rradius 35.233
rwrist -26.5798
rhand -28.0532 -3.84769
rfingers 7.12502
rthumb -1.43731 -33.8226
lclavicle -1.98785e-014 -1.74931e-014
lhumerus -32.9435 -2.24483 72.8786
lradius 41.7142
lwrist 14.7501
lhand -26.5405 21.2944
lfingers 7.12502
lthumb 0.0236645 51.2741
rfemur -36.3133 2.17684 19.9499
rtibia 61.6056
rfoot -20.9412 -23.6952
rtoes -14.4037
lfemur -15.5762 -9.99452 -15.6927
ltibia 43.373
lfoot -27.6752 14.1264
ltoes -25.9129
376
root 2.39666 14.5519 0.537619 -9.99308 106.792 -371.528
lowerback 22.6859 1.11063 -8.4519
upperback 8.27727 0.364579 -3.0252
thorax -3.50913 0.47953 1.42601
lowerneck -8.78524 -0.636583 4.28524
upperneck -10.3623 -0.40065 3.71409
head -1.78862 -0.171115 0.440876
rclavicle 2.3059e-014 1.35174e-014
rhumerus -44.2371 9.40597 -84.4687
rradius 36.091
rwrist -25.3063
rhand -27.9077 -4.03115
rfingers 7.12502
rthumb -1.29676 -34.007
lclavicle 2.3059e-014 1.35174e-014
lhumerus -34.3018 -2.246 75.189
lradius 45.3963
lwrist 15.1622
lhand -24.9989 21.1408
lfingers 7.12502
lthumb 1.5126 51.1152
rfemur -33.3223 3.25317 19.0714
rtibia 60.3843
rfoot -24.8361 -24.9783
rtoes -21.4315
lfemur -16.9331 -10.7114 -16.3482
ltibia 42.5461
lfoot -26.539 14.1086
ltoes -25.3466
377
root 2.20317 14.6413 0.630214 -9.14104 107.23 -371.345
lowerback 21.8737 1.00991 -8.14683
upperback 7.89201 0.293488 -3.12801
thorax -3.52592 0.433543 1.17
lowerneck -9.11664 -0.71492 4.13339
upperneck -8.85172 -0.659487 3.61755
head -1.24869 -0.281912 0.425119
rclavicle 1.66979e-014 1.59028e-015
rhumerus -43.0789 10.5112 -83.9445
rradius 37.7135
rwrist -25.6272
rhand -29.325 -3.23492
rfingers 7.12502
rthumb -2.66558 -33.198
lclavicle 1.66979e-014 1.59028e-015
lhumerus -35.8466 -2.27677 77.5691
lradius 48.7709
lwrist 13.8459
lhand -24.2995 20.0252
lfingers 7.12502
lthumb 2.18808 49.9937
rfemur -30.692 4.33995 19.2114
rtibia 58.2118
rfoot -26.9937 -25.8292
rtoes -24.6167
lfemur -18.2024 -11.6805 -15.9154
ltibia 41.5986
lfoot -25.4712 14.0668
ltoes -25.0108
378
root 2.00812 14.7139 0.718839 -6.58247 107.41 -369.137
lowerback 21.2295 0.871834 -7.29227
upperback 7.66601 0.292811 -2.90041
thorax -3.46368 0.418306 0.94292
lowerneck -9.62929 -0.769069 3.69948
upperneck -7.62842 -0.826435 3.60791
head -0.781472 -0.337636 0.482697
rclavicle 4.53229e-014 1.19271e-014
rhumerus -41.6424 11.641 -82.9542
rradius 39.4812
rwrist -26.7904
rhand -29.8765 -3.0685
rfingers 7.12502
rthumb -3.19817 -33.0243
lclavicle 4.53229e-014 1.19271e-014
lhumerus -37.2875 -1.89162 79.8989
lradius 51.6612
lwrist 11.0922
lhand -24.4547 18.6223
lfingers 7.12502
lthumb 2.03823 48.5923
rfemur -27.8357 6.0913 20.1637
rtibia 55.4872
rfoot -29.4383 -26.2104
rtoes -22.2191
lfemur -19.208 -12.607 -14.8193
ltibia 40.7039
lfoot -24.5922 14.151
ltoes -24.4289
379
root 1.81633 14.7874 0.808917 -4.38772 107.047 -366.773
lowerback 21.115 0.930978 -6.39252
upperback 7.62729 0.543045 -2.6761
thorax -3.47591 0.538759 0.619733
lowerneck -10.1344 -0.865301 3.46277
upperneck -6.86952 -1.01771 3.54175
head -0.46604 -0.41444 0.491994
rclavicle 1.47101e-014 3.02153e-014
rhumerus -40.0505 12.5553 -81.8994
rradius 41.1584
rwrist -27.7173
rhand -29.9127 -3.141
rfingers 7.12502
rthumb -3.23319 -33.0962
lclavicle 1.47101e-014 3.02153e-014
lhumerus -38.4768 -1.21345 81.8244
lradius 54.3321
lwrist 9.29173
lhand -25.2306 16.6762
lfingers 7.12502
lthumb 1.2889 46.652
rfemur -25.2252 8.0516 21.1996
rtibia 52.3729
rfoot -30.5401 -26.2082
rtoes -20.6565
lfemur -19.3939 -13.304 -13.7827
ltibia 39.7936
lfoot -24.0749 14.6656
ltoes -24.0124
380
root 1.62613 14.8497 0.89272 -2.32606 106.572 -364.516
lowerback 20.9489 0.95487 -5.34424
upperback 7.66328 0.787752 -2.53487
thorax -3.37178 0.659972 0.126152
lowerneck -10.3915 -0.937261 3.50865
upperneck -6.54312 -1.16283 3.29741
head -0.326506 -0.483926 0.404385
rclavicle 3.37934e-014 -5.56597e-015
rhumerus -38.2615 13.5025 -81.004
rradius 42.3687
rwrist -28.1732
rhand -29.8879 -2.68551
rfingers 7.12502
rthumb -3.2092 -32.6411
lclavicle 3.37934e-014 -5.56597e-015
lhumerus -39.5362 -0.388957 83.3694
lradius 57.0045
lwrist 9.20699
lhand -25.7818 13.0063
lfingers 7.12502
lthumb 0.756472 42.9847
rfemur -23.1792 9.83995 22.1062
rtibia 49.4063
rfoot -30.4832 -26.7914
rtoes -21.866
lfemur -19.5096 -13.9485 -12.8516
ltibia 39.1264
lfoot -24.0454 15.3178
ltoes -22.9357
381
root 1.43941 14.8948 0.97194 -1.05382 106.256 -363.092
lowerback 20.8174 0.859396 -4.37725
upperback 7.67872 0.853675 -2.4345
thorax -3.29263 0.695735 -0.324949
lowerneck -10.6473 -0.916555 3.46064
upperneck -6.14545 -1.18021 3.02282
head -0.16372 -0.488715 0.325587
rclavicle -7.11649e-014 4.21423e-014
rhumerus -36.2002 14.6265 -80.1993
rradius 42.9539
rwrist -28.4732
rhand -29.4152 -2.47727
rfingers 7.12502
rthumb -2.75268 -32.4393
lclavicle -7.11649e-014 4.21423e-014
lhumerus -40.4852 0.670496 84.637
lradius 59.3596
lwrist 10.3896
lhand -27.4682 10.9452
lfingers 7.12502
lthumb -0.872303 40.9231
rfemur -22.0434 11.5628 22.5372
rtibia 46.8237
rfoot -30.5008 -28.4644
rtoes -25.2575
lfemur -19.6396 -14.2855 -12.2292
ltibia 38.6232
lfoot -24.4195 15.8783
ltoes -21.7465
382
root 1.24841 14.9294 1.05322 -1.40685 106.241 -363.266
lowerback 20.9923 0.637946 -3.70244
upperback 7.64049 0.68085 -2.39952
thorax -3.41972 0.617744 -0.633479
lowerneck -11.0199 -0.858668 3.1976
upperneck -5.53431 -1.14031 2.80434
head 0.0885996 -0.45912 0.299324
rclavicle 1.86858e-014 6.36111e-015
rhumerus -33.972 15.9437 -79.5596
rradius 42.7932
rwrist -28.2009
rhand -29.3875 -2.54209
rfingers 7.12502
rthumb -2.72598 -32.5044
lclavicle 1.86858e-014 6.36111e-015
lhumerus -41.3651 1.7858 85.6045
lradius 61.3805
lwrist 10.6935
lhand -27.3499 10.3582
lfingers 7.12502
lthumb -0.758045 40.3366
rfemur -21.6811 11.7792 22.3789
rtibia 44.9843
rfoot -30.1297 -28.0472
rtoes -25.4473
lfemur -19.8322 -14.2775 -12.1516
ltibia 38.2743
lfoot -24.7765 16.5434
ltoes -21.7504
383
root 1.0555 14.954 1.1399 -3.26923 106.222 -364.944
lowerback 21.2735 0.439949 -3.45963
upperback 7.57985 0.450346 -2.43516
thorax -3.62525 0.509677 -0.761028
lowerneck -11.3124 -0.792784 3.00097
upperneck -4.94587 -1.09029 2.47709
head 0.322028 -0.431287 0.229852
rclavicle 2.62396e-014 1.98785e-014
rhumerus -31.5844 16.9531 -78.8705
rradius 42.2102
rwrist -27.6854
rhand -29.2355 -2.73575
rfingers 7.12502
rthumb -2.57916 -32.6999
lclavicle 2.62396e-014 1.98785e-014
lhumerus -42.2776 2.82722 86.2031
lradius 63.3389
lwrist 9.98695
lhand -26.0117 10.171
lfingers 7.12502
lthumb 0.534459 40.1501
rfemur -21.9418 11.6465 21.786
rtibia 43.7738
rfoot -29.2462 -26.784
rtoes -22.9534
lfemur -20.0669 -13.9008 -12.5421
ltibia 37.9624
lfoot -25.1007 16.8288
ltoes -21.2818
384
root 0.870239 14.9758 1.23159 -6.34419 105.943 -367.855
lowerback 21.4058 0.380524 -3.60773
upperback 7.54055 0.328088 -2.57699
thorax -3.73181 0.452011 -0.802548
lowerneck -11.5191 -0.681948 3.08781
upperneck -4.37223 -1.00641 1.94807
head 0.536077 -0.397279 0.0527076
rclavicle -3.29983e-014 1.59028e-014
rhumerus -29.3241 17.4473 -78.2448
rradius 41.5266
rwrist -26.9906
rhand -29.2638 -2.72166
rfingers 7.12502
rthumb -2.60647 -32.6855
lclavicle -3.29983e-014 1.59028e-014
lhumerus -42.5899 2.88129 86.7101
lradius 64.4188
lwrist 9.84934
lhand -25.4185 9.29521
lfingers 7.12502
lthumb 1.10739 39.2721
rfemur -22.4739 11.5081 20.9032
rtibia 43.0472
rfoot -27.9242 -25.1295
rtoes -19.6073
lfemur -20.2111 -13.1298 -13.2751
ltibia 37.6162
lfoot -24.5275 15.5689
ltoes -14.386
385
root 0.69258 15.0043 1.32722 -10.3734 105.489 -371.687
lowerback 21.3653 0.480327 -4.03139
upperback 7.56676 0.373517 -2.72469
thorax -3.67986 0.473882 -0.730647
lowerneck -11.7189 -0.606948 3.15404
upperneck -3.80418 -0.96112 1.40415
head 0.749916 -0.384584 -0.128429
rclavicle -9.34288e-015 3.97569e-015
rhumerus -27.3419 17.4474 -77.6049
rradius 41.009
rwrist -26.7054
rhand -29.2236 -3.15227
rfingers 7.12502
rthumb -2.56764 -33.1166
lclavicle -9.34288e-015 3.97569e-015
lhumerus -42.5676 1.66822 87.1927
lradius 65.1047
lwrist 9.51281
lhand -25.3 9.18537
lfingers 7.12502
lthumb 1.22181 39.1616
rfemur -22.8473 10.9567 19.9211
rtibia 42.4095
rfoot -26.768 -23.4846
rtoes -17.1161
lfemur -20.1522 -12.0383 -14.2817
ltibia 37.305
lfoot -22.9575 14.8307
ltoes -12.9216
386
root 0.515295 15.0228 1.4227 -13.938 104.898 -375.001
lowerback 21.1893 0.670756 -4.35863
upperback 7.60513 0.565958 -2.73857
thorax -3.55081 0.562884 -0.602228
lowerneck -11.8401 -0.61056 3.14476
upperneck -3.27561 -1.00113 0.930084
head 0.939644 -0.415266 -0.279668
rclavicle -2.34566e-014 5.1684e-015
rhumerus -25.7499 17.1922 -77.0039
rradius 40.8427
rwrist -26.9948
rhand -28.973 -3.87372
rfingers 7.12502
rthumb -2.32567 -33.8408
lclavicle -2.34566e-014 5.1684e-015
lhumerus -42.241 0.275554 87.4801
lradius 65.197
lwrist 8.35396
lhand -24.9448 8.82308
lfingers 7.12502
lthumb 1.56484 38.7971
rfemur -23.0341 10.4114 19.2676
rtibia 41.6561
rfoot -25.8189 -22.7829
rtoes -18.0743
lfemur -19.977 -10.7355 -15.1463
ltibia 37.3039
lfoot -20.6596 14.4593
ltoes -15.0681
